<svg xmlns="http://www.w3.org/2000/svg" width="138" height="48" viewBox="0 0 138 48">
<path fill="#AC9270" fill-rule="evenodd" d="M13.448 39.837c1.332 0 2.908.717 2.908 2.133v4.817c0 .35.053.809.526.809.403 0 .648-.35.91-.735l.194.146c-.333.607-.789.993-1.542.993-.823 0-1.419-.496-1.542-1.14h-.035c-.595.828-1.384 1.14-2.54 1.14-1.366 0-2.19-.717-2.19-1.968 0-2.058 2.61-2.574 4.415-2.574h.333v-2.26c0-.865-.77-1.067-1.437-1.067-.508 0-1.699.202-1.699.864 0 .442.578.239.578 1.066 0 .441-.35.773-.806.773-.49 0-.77-.404-.77-1.03 0-.938.946-1.967 2.697-1.967zm20.664 0c.97 0 1.636.643 1.816.643.108 0 .126-.128.126-.386v-.147h.251l.072 2.188h-.233c-.126-1.048-.666-2.004-2.086-2.004-.917 0-1.654.514-1.654 1.47 0 .957.7 1.288 1.888 1.362l.61.036c1.457.092 2.05.901 2.05 2.17 0 1.71-1.114 2.831-2.498 2.831-1.42 0-1.853-.79-2.212-.79-.234 0-.18.294-.216.68h-.27l-.036-2.776h.234c.144.937.611 2.592 2.5 2.592.988 0 1.744-.662 1.744-1.71 0-1.452-1.08-1.47-2.032-1.581-1.17-.13-2.302-.295-2.302-2.206 0-1.324.845-2.372 2.248-2.372zM4.923 35.265c2.574 0 4.56.9 4.56 3.438 0 2.484-2.297 3.436-4.387 3.436-.587 0-1.278-.123-1.624-.299v5.551h1.762v.282H0v-.282h1.71V35.548H0v-.283h4.923zm24.096 4.749v7.375h1.393v.284h-4.25v-.284h1.393v-6.701H26.16v-.284h1.394c.558 0 1.115-.035 1.464-.39zm-4.754-.177c.696 0 1.242.435 1.242 1.07 0 .472-.301.852-.865.852-.621 0-.828-.308-.828-.798 0-.399.207-.671.414-.78-.076-.054-.17-.054-.264-.054-.771 0-2.163 1.179-2.163 3.537v3.72h1.712v.29H18.64v-.29h1.58v-6.858h-1.58v-.29h1.58c.602 0 1.204-.036 1.58-.4v2.141h.038c.226-.816.884-2.14 2.427-2.14zm-9.38 3.916h-.298c-1.279 0-2.873.037-2.873 2.004 0 1.03.158 1.802 1.279 1.802 1.314 0 1.892-1.03 1.892-1.397v-2.409zm-10.36-8.205H3.473v5.939c.26.176.76.37 1.33.37 1.14 0 2.816-.616 2.816-2.996 0-2.309-1.037-3.313-3.092-3.313zm23.762.37c.488 0 .888.408.888.904 0 .497-.4.905-.888.905s-.889-.408-.889-.905c0-.496.4-.904.889-.904zm84.049-13.538v10.15c0 .686-.097 1.413-.784 1.88-.862.588-2.328.527-2.328.527l-.001-.214s.827.023 1.246-.449c.43-.485.404-1.528.4-1.65v-9.57h-1.642v-.284h1.641c.56 0 1.118-.035 1.468-.39zm10.99.15c1.33 0 2.908.718 2.908 2.134v4.817c0 .35.052.808.525.808.403 0 .648-.349.911-.735l.193.147c-.333.607-.789.993-1.542.993-.823 0-1.419-.496-1.542-1.14h-.035c-.595.828-1.384 1.14-2.54 1.14-1.367 0-2.19-.717-2.19-1.967 0-2.06 2.61-2.574 4.415-2.574h.333V23.89c0-.864-.77-1.066-1.437-1.066-.508 0-1.7.202-1.7.864 0 .442.579.239.579 1.066 0 .442-.35.773-.806.773-.49 0-.77-.405-.77-1.03 0-.938.946-1.967 2.697-1.967zm-82.434 0c1.265 0 2.603.57 2.603 1.71 0 .552-.416.92-.868.92-.56 0-.867-.405-.867-.79 0-.736.452-.7.452-.975 0-.405-.832-.57-1.356-.57-1.753 0-2.169 1.158-2.169 2.905v1.6c0 1.599.073 3.07 2.097 3.07 1.825 0 2.62-1.398 2.747-2.519h.289c-.054 1.397-1.247 2.813-3.036 2.813-2.331 0-3.831-1.692-3.831-3.769 0-2.409 1.807-4.394 3.94-4.394zm-19.595 0c1.331 0 2.908.718 2.908 2.134v4.817c0 .35.052.808.525.808.403 0 .649-.349.911-.735l.193.147c-.333.607-.788.993-1.542.993-.823 0-1.419-.496-1.541-1.14h-.035c-.596.828-1.384 1.14-2.54 1.14-1.367 0-2.19-.717-2.19-1.967 0-2.06 2.61-2.574 4.415-2.574h.332V23.89c0-.864-.77-1.066-1.436-1.066-.508 0-1.7.202-1.7.864 0 .442.579.239.579 1.066 0 .442-.35.773-.806.773-.49 0-.771-.405-.771-1.03 0-.938.946-1.967 2.698-1.967zm59.053 0v7.65h1.404v.293h-2.877V28.8h-.035c-.158.423-.895 1.894-2.456 1.894-1.754 0-2.386-.975-2.386-2.04v-5.425h-1.403v-.294H74c.562 0 1.123-.036 1.474-.404v6.582c0 .79.42 1.287 1.087 1.287 1.228 0 2.316-1.453 2.316-2.813v-4.358h-1.386v-.294h1.386c.56 0 1.122-.036 1.473-.404zm-27.776 0c1.032 0 1.738.645 1.93.645.114 0 .133-.13.133-.387v-.147h.268l.076 2.188h-.248c-.134-1.048-.707-2.004-2.216-2.004-.975 0-1.758.515-1.758 1.47 0 .957.745 1.288 2.006 1.362l.65.036c1.547.092 2.177.901 2.177 2.17 0 1.71-1.184 2.83-2.655 2.83-1.51 0-1.968-.79-2.35-.79-.248 0-.19.295-.229.68h-.286l-.039-2.776h.248c.153.938.65 2.593 2.656 2.593 1.05 0 1.853-.662 1.853-1.71 0-1.453-1.146-1.471-2.159-1.581-1.241-.129-2.445-.294-2.445-2.207 0-1.323.898-2.371 2.388-2.371zm81.56 0c1.915 0 2.452.98 2.452 2.05v5.497H138v.29h-4.33v-.29h1.413v-5.932c0-.997-.483-1.324-1.056-1.324-1.503 0-2.272 1.524-2.594 2.14v5.116h1.36v.29h-4.276v-.29h1.413V23.22h-1.413v-.29h1.413c.859 0 1.181 0 1.503-.4v1.851h.036c.465-.87 1.36-1.85 2.666-1.85zM66.39 17.634v.29h-1.8v5.933l3.368-3.293c.553-.542 1.907-1.899 1.907-2.261 0-.235-.16-.38-.73-.38h-.999v-.29h4.67v.29H72.2c-1.052 0-1.979.905-2.53 1.43l-3.512 3.418 5.15 6.675c.34.416.464.633.963.633h.98v.29h-5.525v-.29h1.658l-4.562-5.987-.231.18v5.807h1.8v.29h-5.24v-.29h1.622V17.922h-1.621v-.29h5.238zm-56.181 0l.255 3.075h-.31c-.073-2.117-1.28-2.786-3.29-2.786H3.527v5.825h1.586c1.901 0 2.3-1.14 2.3-2.316h.292v4.812h-.292c0-1.375-.399-2.207-2.318-2.207H3.527v6.042h1.934v.29H0v-.29h1.663V17.922H0v-.29h10.209zm5.554 4.898c.696 0 1.242.435 1.242 1.07 0 .472-.301.852-.866.852-.62 0-.828-.308-.828-.798 0-.399.207-.67.414-.78-.075-.054-.169-.054-.263-.054-.772 0-2.164 1.179-2.164 3.537v3.72h1.712v.29h-4.873v-.29h1.58V23.22h-1.58v-.29h1.58c.603 0 1.205-.036 1.581-.4v2.141h.038c.226-.816.884-2.14 2.427-2.14zm91.522-5.551v12.886h1.284v.287h-2.847v-1.308h-.038c-.279.609-1.154 1.522-2.437 1.522-2.327 0-3.835-1.881-3.835-3.978 0-1.756 1.47-3.979 3.704-3.979 1.34 0 2.234.986 2.568 1.828h.038v-6.524h-1.489v-.286h1.489c.595 0 1.19-.036 1.563-.448zM88.36 22.53c.696 0 1.242.436 1.242 1.07 0 .473-.301.853-.866.853-.62 0-.827-.308-.827-.798 0-.399.206-.67.413-.78-.075-.054-.17-.054-.263-.054-.772 0-2.164 1.179-2.164 3.537v3.72h1.713v.29h-4.873v-.29h1.58V23.22h-1.58v-.29h1.58c.602 0 1.204-.036 1.58-.4v2.141h.038c.226-.816.884-2.14 2.427-2.14zm-56.253 0c1.914 0 2.451.98 2.451 2.05v5.497h1.414v.29h-4.33v-.29h1.413v-5.932c0-.997-.483-1.324-1.056-1.324-1.503 0-2.272 1.524-2.594 2.14v5.116h1.36v.29h-4.277v-.29h1.414V23.22h-1.414v-.29h1.414c.859 0 1.18 0 1.503-.4v1.851h.035c.466-.87 1.36-1.85 2.667-1.85zm92.655 3.917h-.298c-1.279 0-2.873.037-2.873 2.004 0 1.03.158 1.801 1.279 1.801 1.314 0 1.892-1.029 1.892-1.396v-2.409zm-102.029 0h-.297c-1.28 0-2.874.037-2.874 2.004 0 1.03.158 1.801 1.28 1.801 1.313 0 1.891-1.029 1.891-1.396v-2.409zm80.383-3.75c-1.638 0-1.917 1.236-1.917 3.692 0 2.67.224 3.692 2.048 3.692 1.265 0 2.493-1.022 2.475-2.51v-2.096c0-1.309-1.061-2.778-2.606-2.778zm-55.458-.316v7.376h1.394v.284h-4.251v-.284h1.394v-6.702H44.8v-.284h1.394c.557 0 1.115-.035 1.463-.39zm44.83-5.401v9.898l2.834-2.737c.39-.373.62-.693.62-.817 0-.196-.248-.285-.797-.285h-.602v-.284h3.737v.284h-.62c-.602 0-.885.143-1.488.711l-1.965 1.866 2.78 3.465c.39.48.531.676.868.676h.903v.284h-4.445v-.284h1.275l-2.48-3.075-.62.587v2.488h1.24v.284h-4.126v-.284H91V17.708h-1.4v-.284h1.4c.567 0 1.133-.036 1.488-.444zm24.824 5.401v7.376h1.394v.284h-4.251v-.284h1.394v-6.702h-1.394v-.284h1.394c.558 0 1.115-.035 1.463-.39zm-.731-4.095c.487 0 .888.407.888.904 0 .496-.4.904-.888.904s-.889-.408-.889-.904c0-.497.401-.904.889-.904zm-69.654 0c.488 0 .888.407.888.904 0 .496-.4.904-.888.904s-.889-.408-.889-.904c0-.497.401-.904.889-.904zm64.675 0c.489 0 .89.407.89.904 0 .496-.401.904-.89.904s-.89-.408-.89-.904c0-.497.401-.904.89-.904zM19.008 4.57c1.331 0 2.908.718 2.908 2.133v4.817c0 .35.052.81.525.81.403 0 .648-.35.911-.736l.193.147c-.333.607-.788.993-1.542.993-.823 0-1.419-.496-1.541-1.14h-.035c-.596.828-1.384 1.14-2.54 1.14-1.367 0-2.19-.717-2.19-1.967 0-2.06 2.61-2.574 4.414-2.574h.333V5.932c0-.864-.77-1.066-1.436-1.066-.508 0-1.7.202-1.7.864 0 .441.579.239.579 1.066 0 .441-.35.773-.806.773-.49 0-.771-.405-.771-1.03 0-.938.946-1.968 2.698-1.968zm13.469 0c.97 0 1.636.644 1.816.644.108 0 .126-.128.126-.386v-.147h.252l.071 2.188h-.233c-.126-1.048-.666-2.004-2.086-2.004-.917 0-1.654.514-1.654 1.47 0 .957.7 1.287 1.888 1.361l.61.037c1.457.092 2.05.9 2.05 2.17 0 1.71-1.114 2.83-2.499 2.83-1.42 0-1.851-.79-2.211-.79-.234 0-.18.295-.216.68h-.27l-.036-2.776h.234c.144.938.611 2.593 2.5 2.593.988 0 1.744-.662 1.744-1.71 0-1.453-1.08-1.471-2.032-1.581-1.17-.13-2.302-.295-2.302-2.207 0-1.323.845-2.372 2.248-2.372zm8.073 0c2.388 0 3.924 1.968 3.924 4.082s-1.536 4.082-3.924 4.082-3.924-1.968-3.924-4.082 1.536-4.082 3.924-4.082zm0 .295c-2.007 0-2.14 1.377-2.147 2.916V9.37c0 1.599.073 3.07 2.147 3.07 2.073 0 2.147-1.471 2.147-3.07V7.936c0-1.6-.074-3.07-2.147-3.07zM3.397 0l3.696 9.377L10.718 0h3.344v.282h-1.549v11.844h1.549v.282H9.064v-.282h1.654V.951h-.035L6.388 12.126H6.23L1.865 1.163H1.83v9.5c0 1.164.159 1.463 1.092 1.463h.704v.282H0v-.282h.458c.932 0 1.09-.3 1.09-1.463V.282H0V0h3.397zm23.66 4.75v7.375h1.393v.283H24.2v-.283h1.393V5.424h-1.394V5.14h1.394c.557 0 1.115-.035 1.464-.39zm23.823-.179c1.848 0 2.366.98 2.366 2.05v5.497h1.365v.29h-4.18v-.29h1.364V6.186c0-.998-.466-1.324-1.02-1.324-1.45 0-2.193 1.523-2.504 2.14v5.116h1.313v.29h-4.129v-.29h1.365V5.261h-1.365v-.29h1.365c.83 0 1.14 0 1.451-.4v1.85h.034c.45-.87 1.313-1.85 2.575-1.85zM20.444 8.488h-.298c-1.278 0-2.873.037-2.873 2.004 0 1.03.158 1.801 1.28 1.801 1.313 0 1.891-1.029 1.891-1.396v-2.41zm5.88-7.835c.488 0 .89.408.89.904 0 .496-.402.905-.89.905-.487 0-.888-.409-.888-.905 0-.496.4-.904.889-.904z">
</path>
</svg>